<?xml version="1.0" encoding="UTF-8" standalone="no"?>
<!-- Created with Inkscape (http://www.inkscape.org/) -->

<svg
   xmlns:dc="http://purl.org/dc/elements/1.1/"
   xmlns:cc="http://creativecommons.org/ns#"
   xmlns:rdf="http://www.w3.org/1999/02/22-rdf-syntax-ns#"
   xmlns:svg="http://www.w3.org/2000/svg"
   xmlns="http://www.w3.org/2000/svg"
   version="1.1"
   width="36"
   height="36"
   id="svg2">
  <defs
     id="defs4">
    <linearGradient
       id="linearGradient3765">
      <stop
         id="stop3767"
         style="stop-color:#000000;stop-opacity:1"
         offset="0" />
    </linearGradient>
  </defs>
  <metadata
     id="metadata7">
    <rdf:RDF>
      <cc:Work
         rdf:about="">
        <dc:format>image/svg+xml</dc:format>
        <dc:type
           rdf:resource="http://purl.org/dc/dcmitype/StillImage" />
        <dc:title></dc:title>
      </cc:Work>
    </rdf:RDF>
  </metadata>
  <g
     transform="matrix(0.07033094,0,0,0.07033094,-0.0031858,-38.010434)"
     id="layer1">
    <path
       d="m 479.28571,268.07144 a 222.5,222.5 0 1 1 -445.000004,0 222.5,222.5 0 1 1 445.000004,0 z"
       transform="matrix(1.0603724,0,0,1.0603723,-16.310313,512.12845)"
       id="path2987-5"
       style="fill:#ffffff;fill-opacity:1;stroke:none" />
    <path
       d="m 381.42858,169.5 a 95.35714,38.214287 0 1 1 -190.71428,0"
       transform="matrix(0,-2.4742021,-1.9423643,0,585.20891,1504.1825)"
       id="path3789-3-6"
       style="fill:none;stroke:#323296;stroke-width:18.24639702;stroke-miterlimit:4;stroke-opacity:0.23529412;stroke-dasharray:none" />
    <path
       d="m 381.42858,169.5 a 95.35714,38.214287 0 1 1 -190.71428,0"
       transform="matrix(2.4742023,0,0,-1.9423641,-451.82046,1125.6147)"
       id="path3789-0"
       style="fill:none;stroke:#323296;stroke-width:18.24639702;stroke-miterlimit:4;stroke-opacity:0.23529412;stroke-dasharray:none" />
    <path
       d="m 479.28571,268.07144 a 222.5,222.5 0 1 1 -445.000004,0 222.5,222.5 0 1 1 445.000004,0 z"
       transform="matrix(1.0603724,0,0,1.0603723,-16.310309,512.12848)"
       id="path2987"
       style="fill:none;stroke:#323296;stroke-width:37.72259903;stroke-miterlimit:4;stroke-opacity:1;stroke-dasharray:none" />
    <path
       d="m 381.42858,169.5 a 95.35714,38.214287 0 1 1 -190.71428,0"
       transform="matrix(2.4742023,0,0,1.9423641,-451.82046,467.1533)"
       id="path3789"
       style="fill:none;stroke:#323296;stroke-width:18.24639702;stroke-miterlimit:4;stroke-opacity:1;stroke-dasharray:none" />
    <path
       d="m 381.42858,169.5 a 95.35714,38.214287 0 1 1 -190.71428,0"
       transform="matrix(0,-2.4742021,1.9423643,0,-73.25258,1504.1825)"
       id="path3789-3"
       style="fill:none;stroke:#323296;stroke-width:18.24639702;stroke-miterlimit:4;stroke-opacity:1;stroke-dasharray:none" />
  </g>
</svg>
